<svg xmlns="http://www.w3.org/2000/svg" width="800" height="500" viewBox="0 0 800 500" role="img" aria-label="Photo à venir — Bien immobilier">
  <defs>
    <linearGradient id="bgGrad" x1="0" y1="0" x2="0" y2="1">
      <stop offset="0%"   stop-color="#1e4a74"/>
      <stop offset="100%" stop-color="#0f2540"/>
    </linearGradient>
    <linearGradient id="goldLine" x1="0" y1="0" x2="1" y2="0">
      <stop offset="0%"   stop-color="#c9a84c" stop-opacity="0"/>
      <stop offset="30%"  stop-color="#c9a84c" stop-opacity=".9"/>
      <stop offset="70%"  stop-color="#e8c76a" stop-opacity=".9"/>
      <stop offset="100%" stop-color="#c9a84c" stop-opacity="0"/>
    </linearGradient>
    <linearGradient id="shimmer" x1="0" y1="0" x2="0" y2="1">
      <stop offset="0%"   stop-color="#c9a84c" stop-opacity=".06"/>
      <stop offset="100%" stop-color="#c9a84c" stop-opacity="0"/>
    </linearGradient>
    <filter id="glow">
      <feGaussianBlur stdDeviation="3" result="blur"/>
      <feMerge><feMergeNode in="blur"/><feMergeNode in="SourceGraphic"/></feMerge>
    </filter>
  </defs>

  <!-- Fond dégradé bleu nuit -->
  <rect width="800" height="500" fill="url(#bgGrad)"/>

  <!-- Motif grille géométrique subtil -->
  <g stroke="#ffffff" stroke-opacity=".025" stroke-width="1">
    <line x1="0"   y1="125" x2="800" y2="125"/>
    <line x1="0"   y1="250" x2="800" y2="250"/>
    <line x1="0"   y1="375" x2="800" y2="375"/>
    <line x1="200" y1="0"   x2="200" y2="500"/>
    <line x1="400" y1="0"   x2="400" y2="500"/>
    <line x1="600" y1="0"   x2="600" y2="500"/>
  </g>

  <!-- Cercles décoratifs halo -->
  <circle cx="400" cy="210" r="90" fill="#ffffff" fill-opacity=".04"/>
  <circle cx="400" cy="210" r="70" fill="#ffffff" fill-opacity=".04"/>
  <circle cx="400" cy="210" r="52" fill="#c9a84c"  fill-opacity=".07"/>

  <!-- Icône maison (centrée, scalée depuis viewBox 24x24) -->
  <g transform="translate(352, 162) scale(4)" stroke="#c9a84c" stroke-width="1.2"
     fill="none" stroke-linecap="round" stroke-linejoin="round" filter="url(#glow)">
    <path d="M3 9.5L12 3l9 6.5V20a1 1 0 01-1 1H4a1 1 0 01-1-1V9.5z M9 21V12h6v9"/>
  </g>

  <!-- Trait doré séparateur -->
  <rect x="300" y="310" width="200" height="2" rx="1" fill="url(#goldLine)"/>

  <!-- Label -->
  <text x="400" y="345"
        font-family="Georgia, 'Playfair Display', serif"
        font-size="22" font-weight="600" letter-spacing="1"
        fill="#ffffff" text-anchor="middle" opacity=".92">
    Bien immobilier
  </text>

  <!-- Mention discrète -->
  <text x="400" y="420"
        font-family="Arial, Helvetica, sans-serif"
        font-size="12" letter-spacing="2"
        fill="#ffffff" text-anchor="middle" opacity=".28">
    PHOTO À VENIR
  </text>

  <!-- Signature Pascal Hamm Immobilier -->
  <text x="400" y="460"
        font-family="Georgia, serif"
        font-size="11" letter-spacing=".8"
        fill="#c9a84c" text-anchor="middle" opacity=".45">
    Pascal Hamm Immobilier • Aix-en-Provence
  </text>

  <!-- Shimmer bas de page -->
  <rect x="0" y="440" width="800" height="60" fill="url(#shimmer)"/>
</svg>
